<svg width="25" height="25" viewBox="0 0 25 25" fill="none" xmlns="http://www.w3.org/2000/svg">
<path d="M12.1875 0C9.77705 0 7.42072 0.714784 5.41649 2.05396C3.41227 3.39314 1.85017 5.29657 0.927724 7.52355C0.00528065 9.75052 -0.236073 12.201 0.234185 14.5652C0.704442 16.9293 1.86519 19.1009 3.56964 20.8054C5.27409 22.5098 7.4457 23.6706 9.80984 24.1408C12.174 24.6111 14.6245 24.3697 16.8515 23.4473C19.0784 22.5248 20.9819 20.9627 22.321 18.9585C23.6602 16.9543 24.375 14.598 24.375 12.1875C24.3716 8.95622 23.0865 5.85826 20.8016 3.5734C18.5167 1.28854 15.4188 0.00341229 12.1875 0ZM16.875 13.125H7.50001C7.25136 13.125 7.01291 13.0262 6.83709 12.8504C6.66128 12.6746 6.56251 12.4361 6.56251 12.1875C6.56251 11.9389 6.66128 11.7004 6.83709 11.5246C7.01291 11.3488 7.25136 11.25 7.50001 11.25H16.875C17.1236 11.25 17.3621 11.3488 17.5379 11.5246C17.7137 11.7004 17.8125 11.9389 17.8125 12.1875C17.8125 12.4361 17.7137 12.6746 17.5379 12.8504C17.3621 13.0262 17.1236 13.125 16.875 13.125Z" fill="#301534"/>
</svg>
