<svg width="25" height="25" viewBox="0 0 25 25" fill="none" xmlns="http://www.w3.org/2000/svg">
<path d="M12.1875 0C9.77705 0 7.42072 0.714784 5.41649 2.05396C3.41227 3.39314 1.85017 5.29657 0.927724 7.52354C0.00528065 9.75052 -0.236072 12.201 0.234185 14.5652C0.704442 16.9293 1.86519 19.1009 3.56964 20.8054C5.27409 22.5098 7.4457 23.6706 9.80984 24.1408C12.174 24.6111 14.6245 24.3697 16.8515 23.4473C19.0784 22.5248 20.9819 20.9627 22.321 18.9585C23.6602 16.9543 24.375 14.598 24.375 12.1875C24.371 8.95641 23.0856 5.85881 20.8009 3.57409C18.5162 1.28936 15.4186 0.00403131 12.1875 0ZM16.875 13.125H13.125V16.875C13.125 17.1236 13.0262 17.3621 12.8504 17.5379C12.6746 17.7137 12.4361 17.8125 12.1875 17.8125C11.9389 17.8125 11.7004 17.7137 11.5246 17.5379C11.3488 17.3621 11.25 17.1236 11.25 16.875V13.125H7.5C7.25136 13.125 7.01291 13.0262 6.83709 12.8504C6.66128 12.6746 6.5625 12.4361 6.5625 12.1875C6.5625 11.9389 6.66128 11.7004 6.83709 11.5246C7.01291 11.3488 7.25136 11.25 7.5 11.25H11.25V7.5C11.25 7.25136 11.3488 7.0129 11.5246 6.83709C11.7004 6.66127 11.9389 6.5625 12.1875 6.5625C12.4361 6.5625 12.6746 6.66127 12.8504 6.83709C13.0262 7.0129 13.125 7.25136 13.125 7.5V11.25H16.875C17.1236 11.25 17.3621 11.3488 17.5379 11.5246C17.7137 11.7004 17.8125 11.9389 17.8125 12.1875C17.8125 12.4361 17.7137 12.6746 17.5379 12.8504C17.3621 13.0262 17.1236 13.125 16.875 13.125Z" fill="#AD28EB"/>
</svg>
